REM󠁽 GENRE "Rock / Art 　Rock / Pop Rock"
REM D "Supertramp"
TITLE "Breakfast In America PT-SHM.flac" WAVE
  TRACK 01 AUDIO
    TITLE "Breakfast In America PT-SHM.flac" WAVE
  TRACK 01 AUDIO
    TITLE "Breakfast In America"
    PERFORMER "Supertramp"
    INDEX 00 15:18:25
    INDEX 01 15:20:17
  TRACK 05 AUDIO
    TITLE "Oh Darling"
    PERFORMER "Supertramp"
    INDEX 01 17:59:37
  TRACK 06 AUDIO
    TITLE "Take The Long Way Home"
    PERFORMER "Supertramp"
    INDEX 00 22:06:53
    INDEX 01 22:07:70
  TRACK 07 AUDIO
    TITLE "Lord Is It Mine"
    PERFORMER "Supertramp"
    INDEX 01 27:16:00
  TRACK 08 AUDIO
    TITLE "Just Another Nervous Wreck"
    PERFORMER "Supertramp"
    INDEX 01 31:25:72
  TRACK 09 AUDIO
    TITLE "Casual Conversations"
    PERFORMER "Supertramp"
    INDEX 00 35:49:41
    INDEX 01 35:51:45
  TRACK 10 AUDIO
    TITLE "Child Of Vision"
    PERFORMER "Supertramp"
    INDEX 00 15:18:25
    INDEX 01 15:20:17
  TRACK 05 AUDIO
    TITLE "Oh Darling"
    PERFORMER "Supertramp"
    INDEX 01 17:59:37
  TRACK 06 AUDIO
    TITLE "Take The Long Way Home"
    PERFORMER "Supertramp"
    INDEX 00 22:06:53
    INDEX 01 22:07:70
  TRACK 07 AUDIO
    TITLE "Lord Is It Mine"
    PERFORMER "Supertramp"
    INDEX 00 15:18:25
    INDEX 01 15:20:17
  TRACK 05 AUDIO
    TITLE "Oh Darling"
    PERFORMER "Supertramp"
    INDEX 01 17:59:37
  TRACK 06 AUDIO
    TITLE "Take The Long Way Home"
    PERFORMER "Supertramp"
    INDEX 00 22:06:53
    INDEX 01 22:07:70
  TRACK 07 AUDIO
    TITLE "Lord Is It Mine"
    PERFORMER "Supertramp"
    INDEX 01 27:16:00
  TRACK 08 AUDIO
    TITLE "Just Another Nervous Wreck"
    PERFORMER "Supertramp"
    INDEX:20:17
  TRACK 05 AUDIO
    TITLE "Oh Darling"
    PERFORMER "Supertramp"
    INDEX 01 17:59:37
  TRACK 06 AUDIO
    TITLE "Take The Long Way Home"
    PERFORMER "Supertramp"
    INDEX 00 22:06:53
    INDEX 01 22:07:70
  TRACK 07 AUDIO
    TITLE "Lord Is It Mine"
    PERFORMER "Supertramp"
    INDEX 01 27:16:00
  TRACK 08 AUDIO
    TITLE "Just Another Nervous Wreck"
    PERFORMER "Supertramp"
    INDEX 01 31:25:72
  TRACK 09 AUDIO
    TITLE "Casual Conversations"
    PERFORMER "Supertramp"
    INDEX 00 35:49:41
    INDEX 01 35:51:45
  TRACK 10 AUDIO
    TITLE "Child Of Vision"
    PERFORMER "Supertramp"
    INDEX 01 38:50:30
